<?xml version="1.0" standalone="no"?>
<!DOCTYPE svg PUBLIC "-//W3C//DTD SVG 20010904//EN"
 "http://www.w3.org/TR/2001/REC-SVG-20010904/DTD/svg10.dtd">
<svg version="1.0" xmlns="http://www.w3.org/2000/svg"
 width="313.000000pt" height="313.000000pt" viewBox="0 0 313.000000 313.000000"
 preserveAspectRatio="xMidYMid meet">
<metadata>
Created by potrace 1.10, written by Peter Selinger 2001-2011
</metadata>
<g transform="translate(0.000000,313.000000) scale(0.050000,-0.050000)"
fill="#8a629e" stroke="none">
<path d="M3038 5973 c-4 -4 -80 -13 -168 -19 -1859 -135 -3065 -2112 -2375
-3891 l58 -147 114 231 c275 551 760 1225 1320 1831 159 172 173 194 173 270
0 158 92 251 395 401 147 72 193 87 220 70 28 -17 83 6 285 122 302 173 948
499 1250 629 121 52 227 101 236 109 63 58 -740 332 -1086 370 -158 17 -413
31 -422 24z m542 -264 c224 -37 425 -93 434 -122 5 -12 -168 -113 -388 -227
-218 -113 -485 -254 -593 -316 -124 -69 -235 -117 -298 -127 -304 -48 -644
-312 -745 -577 -45 -120 -87 -184 -210 -320 -451 -500 -805 -972 -1079 -1435
-47 -80 -92 -145 -101 -145 -112 0 -165 802 -81 1217 285 1393 1622 2289 3061
2052z"/>
<path d="M4549 5143 c-579 -366 -749 -486 -1205 -857 -111 -91 126 -505 648
-1130 150 -179 300 -366 334 -416 86 -125 903 -1137 1055 -1308 39 -42 341
512 439 804 358 1071 -11 2392 -857 3061 l-75 60 -339 -214z m492 -186 c291
-295 510 -665 632 -1067 83 -273 95 -1138 20 -1430 -85 -334 -273 -719 -338
-695 -36 14 -559 648 -846 1025 -109 143 -312 397 -451 563 -353 421 -517 676
-518 800 0 73 371 353 951 717 395 249 392 248 550 87z"/>
<path d="M2229 3407 c-374 -294 -930 -874 -1562 -1628 -42 -50 193 -381 462
-650 1056 -1057 2707 -1115 3867 -134 l105 89 -167 173 c-92 95 -310 326 -484
513 -944 1013 -1625 1685 -1705 1683 -53 -1 -108 17 -181 62 -57 36 -107 65
-110 65 -3 0 -104 -78 -225 -173z m399 -141 l162 -55 571 -580 c664 -675 1439
-1498 1439 -1528 0 -32 -221 -194 -384 -282 -883 -475 -1949 -424 -2805 136
-249 162 -701 642 -716 759 -17 131 1415 1604 1559 1604 6 0 84 -24 174 -54z"/>
</g>
</svg>
