<svg version="1.1" id="Layer_1" xmlns="http://www.w3.org/2000/svg" xmlns:xlink="http://www.w3.org/1999/xlink" x="0px" y="0px"
	 width="100%" viewBox="0 0 313 313" enable-background="new 0 0 313 313" xml:space="preserve">
<path fill="#FFFEFF" opacity="1.000000" stroke="none" 
	d="
M178.000000,314.000000 
	C118.666695,314.000000 59.833389,314.000000 1.000063,314.000000 
	C1.000042,209.666748 1.000042,105.333488 1.000021,1.000175 
	C105.333199,1.000117 209.666397,1.000117 313.999695,1.000058 
	C313.999817,105.333160 313.999817,209.666321 313.999908,313.999756 
	C268.833344,314.000000 223.666672,314.000000 178.000000,314.000000 
M60.636757,194.151184 
	C52.944649,203.125885 45.422497,212.254868 37.481136,221.003311 
	C34.056015,224.776505 33.696812,227.545959 36.515442,232.091370 
	C76.732697,296.947021 161.619476,318.660950 227.804398,280.487305 
	C237.632126,274.818939 246.502289,267.490387 256.343353,260.557983 
	C250.851761,254.725021 246.460999,249.982117 241.985657,245.320419 
	C209.240631,211.211884 176.483490,177.114960 143.695145,143.048111 
	C142.838852,142.158432 141.668137,141.362183 140.498657,141.021545 
	C136.667679,139.905640 132.362244,139.745529 129.002792,137.858536 
	C125.032524,135.628464 122.448738,135.808929 118.825928,138.533005 
	C97.407997,154.637634 78.875092,173.718399 60.636757,194.151184 
M174.914490,122.550797 
	C177.594543,126.559822 180.012024,130.776978 182.997620,134.543839 
	C201.286560,157.618469 219.635391,180.646530 238.105621,203.576248 
	C248.635086,216.647980 259.432587,229.503799 270.523621,242.959366 
	C272.334961,240.472580 273.855560,238.549179 275.202606,236.511093 
	C296.697998,203.988464 303.775055,168.375595 296.624084,130.249298 
	C290.593872,98.098351 274.517120,71.389572 249.981018,49.713715 
	C246.710342,46.824318 244.238449,46.366467 240.591934,49.032810 
	C235.634369,52.657784 230.075333,55.452442 225.053665,58.998837 
	C206.728302,71.940552 188.528351,85.059731 170.255615,98.076218 
	C167.614822,99.957382 166.581451,102.168159 167.879562,105.320999 
	C170.148727,110.832321 172.328888,116.380295 174.914490,122.550797 
M181.617188,57.070583 
	C197.015854,49.705452 212.414520,42.340324 227.861023,34.952312 
	C185.970215,7.736785 112.840202,5.284098 61.099537,53.150089 
	C8.528529,101.784241 6.743973,174.298828 29.056801,216.441483 
	C29.800091,215.139069 30.422810,214.041351 31.051582,212.947128 
	C38.259342,200.403748 45.039364,187.589722 52.767075,175.375275 
	C68.134407,151.085602 86.938477,129.470734 106.362923,108.379341 
	C107.594147,107.042450 108.747841,104.983795 108.737968,103.267822 
	C108.697098,96.164352 112.069023,91.041412 117.772461,87.588707 
	C123.732758,83.980507 130.078461,81.003487 136.304718,77.847313 
	C137.045364,77.471855 138.093689,77.685326 139.000366,77.659309 
	C140.727768,77.609741 142.772324,78.179802 144.134277,77.455971 
	C156.473206,70.898201 168.692871,64.116013 181.617188,57.070583 
z"/>
<path fill="#8A629E" opacity="1.000000" stroke="none" 
	d="
M60.864990,193.879395 
	C78.875092,173.718399 97.407997,154.637634 118.825928,138.533005 
	C122.448738,135.808929 125.032524,135.628464 129.002792,137.858536 
	C132.362244,139.745529 136.667679,139.905640 140.498657,141.021545 
	C141.668137,141.362183 142.838852,142.158432 143.695145,143.048111 
	C176.483490,177.114960 209.240631,211.211884 241.985657,245.320419 
	C246.460999,249.982117 250.851761,254.725021 256.343353,260.557983 
	C246.502289,267.490387 237.632126,274.818939 227.804398,280.487305 
	C161.619476,318.660950 76.732697,296.947021 36.515442,232.091370 
	C33.696812,227.545959 34.056015,224.776505 37.481136,221.003311 
	C45.422497,212.254868 52.944649,203.125885 60.864990,193.879395 
z"/>
<path fill="#8A639E" opacity="1.000000" stroke="none" 
	d="
M174.730423,122.231850 
	C172.328888,116.380295 170.148727,110.832321 167.879562,105.320999 
	C166.581451,102.168159 167.614822,99.957382 170.255615,98.076218 
	C188.528351,85.059731 206.728302,71.940552 225.053665,58.998837 
	C230.075333,55.452442 235.634369,52.657784 240.591934,49.032810 
	C244.238449,46.366467 246.710342,46.824318 249.981018,49.713715 
	C274.517120,71.389572 290.593872,98.098351 296.624084,130.249298 
	C303.775055,168.375595 296.697998,203.988464 275.202606,236.511093 
	C273.855560,238.549179 272.334961,240.472580 270.523621,242.959366 
	C259.432587,229.503799 248.635086,216.647980 238.105621,203.576248 
	C219.635391,180.646530 201.286560,157.618469 182.997620,134.543839 
	C180.012024,130.776978 177.594543,126.559822 174.730423,122.231850 
z"/>
<path fill="#8B639F" opacity="1.000000" stroke="none" 
	d="
M181.282318,57.235062 
	C168.692871,64.116013 156.473206,70.898201 144.134277,77.455971 
	C142.772324,78.179802 140.727768,77.609741 139.000366,77.659309 
	C138.093689,77.685326 137.045364,77.471855 136.304718,77.847313 
	C130.078461,81.003487 123.732758,83.980507 117.772461,87.588707 
	C112.069023,91.041412 108.697098,96.164352 108.737968,103.267822 
	C108.747841,104.983795 107.594147,107.042450 106.362923,108.379341 
	C86.938477,129.470734 68.134407,151.085602 52.767075,175.375275 
	C45.039364,187.589722 38.259342,200.403748 31.051582,212.947128 
	C30.422810,214.041351 29.800091,215.139069 29.056801,216.441483 
	C6.743973,174.298828 8.528529,101.784241 61.099537,53.150089 
	C112.840202,5.284098 185.970215,7.736785 227.861023,34.952312 
	C212.414520,42.340324 197.015854,49.705452 181.282318,57.235062 
z"/>
</svg>